<svg width="506" height="565" viewBox="0 0 506 565" fill="none" xmlns="http://www.w3.org/2000/svg">
<path fill-rule="evenodd" clip-rule="evenodd" d="M297.351 564.392C-86.2594 559.49 -112.61 25.7447 299.802 0.620117L297.351 564.392Z" fill="#062D60"/>
<path fill-rule="evenodd" clip-rule="evenodd" d="M505.089 0V3.06398L504.476 318.654C504.476 318.654 476.287 288.014 424.2 259.213C424.2 259.213 394.173 243.28 372.112 223.67C372.112 223.67 320.637 178.936 343.311 101.724C365.984 24.5118 456.678 7.96634 505.702 0H505.089Z" fill="#062D60"/>
<path fill-rule="evenodd" clip-rule="evenodd" d="M337.182 565V561.936L337.795 246.347C337.795 246.347 365.984 276.986 418.071 305.788C418.071 305.788 448.098 321.721 470.159 341.33C470.159 341.33 521.634 386.064 498.96 463.276C476.287 540.489 385.593 557.034 336.569 565H337.182Z" fill="#062D60"/>
</svg>
